<svg xmlns="http://www.w3.org/2000/svg" width="12.459" height="14.017" viewBox="0 0 12.459 14.017">
    <g data-name="Grupo 39">
        <g data-name="Grupo 38">
            <path d="M11.3.101a.24.24 0 0 0-.39.279 5.737 5.737 0 0 1 0 6.671.24.24 0 0 0 .054.334.24.24 0 0 0 .334-.056A6.217 6.217 0 0 0 11.3.101z" data-name="Trazado 121" transform="translate(-26.008 .001) translate(26.008 -.001)"/>
            <path d="M1.492.045a.24.24 0 0 0-.333.056 6.217 6.217 0 0 0 0 7.228.24.24 0 0 0 .39-.279 5.737 5.737 0 0 1 0-6.671.24.24 0 0 0-.057-.334z" data-name="Trazado 122" transform="translate(-26.008 .001) translate(26.008 -.001)"/>
            <path d="M3.016 1.219a.24.24 0 0 0-.043-.336.24.24 0 0 0-.335.042 4.533 4.533 0 0 0 0 5.579.24.24 0 0 0 .378-.294 4.053 4.053 0 0 1 0-4.991z" data-name="Trazado 123" transform="translate(-26.008 .001) translate(26.008 -.001)"/>
            <path d="M9.485.883a.24.24 0 0 0-.042.335 4.053 4.053 0 0 1 0 4.99.24.24 0 0 0 .378.294 4.533 4.533 0 0 0 0-5.579.24.24 0 0 0-.336-.04z" data-name="Trazado 124" transform="translate(-26.008 .001) translate(26.008 -.001)"/>
            <path d="M7.974 2.075a2.387 2.387 0 0 1 0 3.278.24.24 0 0 0 .01.339.24.24 0 0 0 .339-.01 2.866 2.866 0 0 0 0-3.935.24.24 0 0 0-.352.325z" data-name="Trazado 125" transform="translate(-26.008 .001) translate(26.008 -.001)"/>
            <path d="M4.31 5.757a.24.24 0 0 0 .175-.4 2.387 2.387 0 0 1 0-3.278.24.24 0 1 0-.346-.331 2.866 2.866 0 0 0 0 3.935.24.24 0 0 0 .171.074z" data-name="Trazado 126" transform="translate(-26.008 .001) translate(26.008 -.001)"/>
            <path d="M9.337 13.717l-2.333-9.1a1.2 1.2 0 1 0-1.549 0l-2.333 9.1a.24.24 0 0 0 .172.292.244.244 0 0 0 .059.007.24.24 0 0 0 .232-.18l.08-.311a.241.241 0 0 0 .039-.015l4.479-2.357.688 2.683a.24.24 0 0 0 .232.18.243.243 0 0 0 .06-.007.24.24 0 0 0 .173-.291zm-2.31-7.078l-1.3-1.14.165-.643a1.075 1.075 0 0 0 .681 0zm-.8-3.644a.719.719 0 1 1-.719.719.719.719 0 0 1 .722-.719zm-.639 3.024l1.443 1.263-2.132 1.421zm-1.766 6.886l.86-3.354 2.923 1.364zm1.214-3.717l2.255-1.5.744 2.9z" data-name="Trazado 127" transform="translate(-26.008 .001) translate(26.008 -.001)"/>
        </g>
    </g>
</svg>
