<svg xmlns="http://www.w3.org/2000/svg" width="19.682" height="21.322" viewBox="0 0 19.682 21.322">
    <defs>
        <style>
            .prefix__cls-1{fill:#fff;stroke:#fff;stroke-width:.8px}
        </style>
    </defs>
    <g id="prefix__bell" transform="translate(.4 .4)">
        <path id="prefix__Trazado_1" d="M17.095 13.984c-.59 0-.923-.307-1.114-1.023a13.189 13.189 0 0 1-.208-2.922 18.909 18.909 0 0 0-.357-4.292.3.3 0 0 0-.592.145 18.45 18.45 0 0 1 .339 4.15 13.509 13.509 0 0 0 .229 3.075 2.449 2.449 0 0 0 .4.867H3.091a2.449 2.449 0 0 0 .4-.867 13.5 13.5 0 0 0 .229-3.075A13.178 13.178 0 0 1 4.471 4.7c.819-1.737 2.445-2.582 4.97-2.582a6.5 6.5 0 0 1 3.372.775 4.091 4.091 0 0 1 1.656 1.936.3.3 0 0 0 .558-.245 4.744 4.744 0 0 0-1.9-2.213 5.784 5.784 0 0 0-1.877-.7 1.815 1.815 0 0 0-3.62 0 5.839 5.839 0 0 0-1.8.653 4.7 4.7 0 0 0-1.91 2.119 13.609 13.609 0 0 0-.809 5.6 13.18 13.18 0 0 1-.211 2.918c-.191.717-.524 1.023-1.114 1.023a1.787 1.787 0 0 0 0 3.574h1.93a.3.3 0 1 0 0-.61H1.787a1.177 1.177 0 0 1 0-2.355h15.308a1.177 1.177 0 0 1 0 2.355H4.935a.3.3 0 0 0 0 .61h1.251a3.269 3.269 0 0 0 6.509 0h4.4a1.787 1.787 0 0 0 0-3.574zM9.441.61a1.208 1.208 0 0 1 1.183.969 10.455 10.455 0 0 0-2.365 0A1.208 1.208 0 0 1 9.441.61zm0 19.3A2.663 2.663 0 0 1 6.8 17.558h5.283a2.663 2.663 0 0 1-2.642 2.355zm0 0" class="prefix__cls-1" data-name="Trazado 1"/>
        <path id="prefix__Trazado_2" d="M353.9 34.046a3.955 3.955 0 0 1 1.082 1.032 5.861 5.861 0 0 1 1.078 3.578.3.3 0 1 0 .61 0 6.467 6.467 0 0 0-1.219-3.97 4.455 4.455 0 0 0-1.254-1.173.3.3 0 0 0-.3.533zm0 0" class="prefix__cls-1" data-name="Trazado 2" transform="translate(-339.564 -32.134)"/>
        <path id="prefix__Trazado_3" d="M411.678 37.078a3.228 3.228 0 0 1 1.2 2.751.3.3 0 0 0 .609 0 3.817 3.817 0 0 0-1.482-3.264.3.3 0 0 0-.329.513zm0 0" class="prefix__cls-1" data-name="Trazado 3" transform="translate(-395.044 -35.053)"/>
        <path id="prefix__Trazado_4" d="M44.652 38.96a.3.3 0 0 0 .3-.3 5.862 5.862 0 0 1 1.078-3.578 3.967 3.967 0 0 1 1.082-1.032.3.3 0 0 0-.3-.533 4.455 4.455 0 0 0-1.254 1.173 6.468 6.468 0 0 0-1.219 3.97.3.3 0 0 0 .313.3zm0 0" class="prefix__cls-1" data-name="Trazado 4" transform="translate(-42.57 -32.133)"/>
        <path id="prefix__Trazado_5" d="M11.2 40.134a.3.3 0 0 0 .3-.3 3.228 3.228 0 0 1 1.2-2.751.3.3 0 0 0-.329-.513 3.817 3.817 0 0 0-1.482 3.264.3.3 0 0 0 .311.3zm0 0" class="prefix__cls-1" data-name="Trazado 5" transform="translate(-10.454 -35.054)"/>
    </g>
</svg>
