<svg xmlns="http://www.w3.org/2000/svg" id="prefix__categoria-i" width="18" height="18" viewBox="0 0 18 18">
    <defs>
        <clipPath id="prefix__clip-path">
            <path id="prefix__Trazado_4877" d="M3 13v4h4v-4zM3 3v4h4V3zm10 10v4h4v-4zm0-10v4h4V3zm-2 8h8v8h-8zm0-10h8v8h-8zM1 11h8v8H1zM1 1h8v8H1z" class="prefix__cls-1" data-name="Trazado 4877" transform="translate(-1 -1)"/>
        </clipPath>
        <clipPath id="prefix__clip-path-2">
            <path id="prefix__Rect치ngulo_1711" d="M0 0H3744V2510H0z" class="prefix__cls-1" data-name="Rect치ngulo 1711" transform="translate(0 .391)"/>
        </clipPath>
        <style>
            .prefix__cls-1{fill:#526876}
        </style>
    </defs>
    <g id="prefix__Grupo_240" data-name="Grupo 240">
        <g id="prefix__Grupo_239" data-name="Grupo 239" transform="translate(-419 -1317)">
            <path id="prefix__Rect치ngulo_1710" d="M0 0H28V28H0z" class="prefix__cls-1" data-name="Rect치ngulo 1710" transform="translate(414 1312.391)"/>
        </g>
    </g>
</svg>
