<svg xmlns="http://www.w3.org/2000/svg" width="26.551" height="26.551" viewBox="0 0 26.551 26.551">
    <defs>
        <linearGradient id="prefix__linear-gradient" x1=".5" x2=".5" y2="1" gradientUnits="objectBoundingBox">
            <stop offset="0" stop-color="#ff883d"/>
            <stop offset="1" stop-color="#8e75ff"/>
        </linearGradient>
    </defs>
    <path id="prefix__followers" d="M15.755 12.837a5.848 5.848 0 0 0-.13-1.229 5.862 5.862 0 0 0 1.025.09 7.824 7.824 0 0 1 6.241 3.107L24.3 13.24a9.958 9.958 0 0 0-3.919-2.887 5.846 5.846 0 1 0-9.446-3.273 5.846 5.846 0 0 0-4.754 10.26A9.923 9.923 0 0 0 0 26.518h2.075a7.841 7.841 0 0 1 7.832-7.832 5.855 5.855 0 0 0 5.848-5.849zm.895-10.76a3.773 3.773 0 1 1-3.773 3.773 3.778 3.778 0 0 1 3.773-3.773zM9.907 16.611a3.773 3.773 0 1 1 3.773-3.773 3.778 3.778 0 0 1-3.773 3.773zm16.644.33l-8.633 9.612-5.618-5.344 1.43-1.5 4.07 3.869 7.206-8.023z" transform="translate(0 -.002)"/>
</svg>
