<svg xmlns="http://www.w3.org/2000/svg" width="26.365" height="24.151" viewBox="0 0 26.365 24.151">
    <defs>
        <linearGradient id="prefix__linear-gradient" x1=".5" x2=".5" y2="1" gradientUnits="objectBoundingBox">
            <stop offset="0" stop-color="#729dff"/>
            <stop offset="1" stop-color="#8e75ff"/>
        </linearGradient>
        <style>
            .prefix__cls-1{fill:url(#prefix__linear-gradient)}
        </style>
    </defs>
    <g id="prefix__friendship" transform="translate(0 -21.49)">
        <g id="prefix__Grupo_4" data-name="Grupo 4" transform="translate(17.982 31.814)">
            <g id="prefix__Grupo_3" data-name="Grupo 3">
                <path id="prefix__Trazado_15" d="M353.071 222.006a.386.386 0 0 0-.5.213 1.41 1.41 0 0 1-2.612 0 .386.386 0 0 0-.716.289 2.182 2.182 0 0 0 4.044 0 .386.386 0 0 0-.216-.502z" class="prefix__cls-1" data-name="Trazado 15" transform="translate(-349.212 -221.977)"/>
            </g>
        </g>
        <g id="prefix__Grupo_6" data-name="Grupo 6" transform="translate(17.427 29.196)">
            <g id="prefix__Grupo_5" data-name="Grupo 5">
                <path id="prefix__Trazado_16" d="M338.809 171.145a.386.386 0 0 0-.386.386v.214a.386.386 0 0 0 .772 0v-.214a.386.386 0 0 0-.386-.386z" class="prefix__cls-1" data-name="Trazado 16" transform="translate(-338.423 -171.145)"/>
            </g>
        </g>
        <g id="prefix__Grupo_8" data-name="Grupo 8" transform="translate(21.866 29.196)">
            <g id="prefix__Grupo_7" data-name="Grupo 7">
                <path id="prefix__Trazado_17" d="M425.017 171.145a.386.386 0 0 0-.386.386v.214a.386.386 0 1 0 .772 0v-.214a.386.386 0 0 0-.386-.386z" class="prefix__cls-1" data-name="Trazado 17" transform="translate(-424.631 -171.145)"/>
            </g>
        </g>
        <g id="prefix__Grupo_10" data-name="Grupo 10" transform="translate(4.738 31.814)">
            <g id="prefix__Grupo_9" data-name="Grupo 9">
                <path id="prefix__Trazado_18" d="M95.866 222.005a.386.386 0 0 0-.5.213 1.41 1.41 0 0 1-2.612 0 .386.386 0 1 0-.716.289 2.182 2.182 0 0 0 4.044 0 .386.386 0 0 0-.216-.502z" class="prefix__cls-1" data-name="Trazado 18" transform="translate(-92.007 -221.977)"/>
            </g>
        </g>
        <g id="prefix__Grupo_12" data-name="Grupo 12" transform="translate(4.182 29.196)">
            <g id="prefix__Grupo_11" data-name="Grupo 11">
                <path id="prefix__Trazado_19" d="M81.6 171.145a.386.386 0 0 0-.386.386v.214a.386.386 0 1 0 .772 0v-.214a.386.386 0 0 0-.386-.386z" class="prefix__cls-1" data-name="Trazado 19" transform="translate(-81.218 -171.145)"/>
            </g>
        </g>
        <g id="prefix__Grupo_14" data-name="Grupo 14" transform="translate(8.621 29.196)">
            <g id="prefix__Grupo_13" data-name="Grupo 13">
                <path id="prefix__Trazado_20" d="M167.812 171.145a.386.386 0 0 0-.386.386v.214a.386.386 0 1 0 .772 0v-.214a.386.386 0 0 0-.386-.386z" class="prefix__cls-1" data-name="Trazado 20" transform="translate(-167.426 -171.145)"/>
            </g>
        </g>
        <g id="prefix__Grupo_16" data-name="Grupo 16" transform="translate(0 21.49)">
            <g id="prefix__Grupo_15" data-name="Grupo 15">
                <path id="prefix__Trazado_21" d="M25.978 27.047a.386.386 0 0 0 .386-.386v-1.072a2.764 2.764 0 0 0-2.764-2.761h-.519l-.063-.146a1.978 1.978 0 0 0-1.816-1.193h-2.558a4.95 4.95 0 0 0-4.944 4.945v7.886a2.075 2.075 0 0 0 2.073 2.073h2.209v.545H8.838V36.2a4.824 4.824 0 0 0 2.73-3.745 1.423 1.423 0 0 0 1.42-1.422v-.49a1.415 1.415 0 0 0-.332-.912l.889-3.518a.386.386 0 0 0-.749-.189l-.823 3.256a1.414 1.414 0 0 0-.366-.059v-1.3a.386.386 0 0 0-.5-.369 7.165 7.165 0 0 1-5.364-.1 3.775 3.775 0 0 1-1.479-1.279.386.386 0 0 0-.723.189c0 .957-.2 1.164-1.214 1.232a.386.386 0 0 0-.36.385v1.244a1.414 1.414 0 0 0-.4.071 12.573 12.573 0 0 1-.3-1.344c-.06-.483-.018-1.924 0-2.439v-.016a1.148 1.148 0 0 1 1.144-1.145H3a.386.386 0 0 0 .273-.113l1.381-1.382a1.154 1.154 0 0 1 1.077-.3l4.858 1.155a3.381 3.381 0 0 0 2.889-.644.039.039 0 0 1 .062.039l-.292 1.158a.386.386 0 0 0 .749.189l.293-1.158a.811.811 0 0 0-1.292-.833 2.609 2.609 0 0 1-2.229.5L5.907 21.7a1.931 1.931 0 0 0-1.8.51l-1.271 1.267h-.425a1.921 1.921 0 0 0-1.919 1.911 25.461 25.461 0 0 0 0 2.558 14.92 14.92 0 0 0 .4 1.723 1.415 1.415 0 0 0-.3.877v.49a1.423 1.423 0 0 0 1.42 1.422A4.815 4.815 0 0 0 4.738 36.2v.737h-.8a3.154 3.154 0 0 0-.7.077 1.093 1.093 0 0 0-.949-.553h-.94A1.35 1.35 0 0 0 0 37.812v2.1a1.35 1.35 0 0 0 .786 1.225v4.117a.386.386 0 0 0 .386.386H12.4a.386.386 0 0 0 .386-.386v-5.168a3.141 3.141 0 0 0-1.086-2.375h6.277v.189c0 1.114 1.672 2.078 1.863 2.184a.386.386 0 0 0 .376 0c.191-.106 1.862-1.07 1.862-2.184v-.193h.8a2.378 2.378 0 0 1 2.375 2.375v4.783H24.18v-2.584a.386.386 0 1 0-.772 0v2.588h-6.75v-4.442a.386.386 0 0 0-.386-.386h-2.317a.386.386 0 0 0 0 .772h1.93v4.442a.386.386 0 0 0 .386.386h9.377a.386.386 0 0 0 .386-.386v-5.169a3.151 3.151 0 0 0-3.148-3.148h-.8v-.545h2.21a2.075 2.075 0 0 0 2.073-2.073v-5.836a.386.386 0 1 0-.772 0v.874a1.412 1.412 0 0 0-.74-.234v-1.862a4.3 4.3 0 0 0-.772-2.467.386.386 0 0 0-.562-.078 9.54 9.54 0 0 1-7.847 1.983.386.386 0 0 0-.459.359V29.121a1.413 1.413 0 0 0-.74.234v-2.921a4.177 4.177 0 0 1 4.172-4.172h2.562a1.205 1.205 0 0 1 1.107.727l.164.378a.386.386 0 0 0 .354.233h.764a1.99 1.99 0 0 1 1.988 1.988v1.072a.386.386 0 0 0 .39.387zm-23.232 5a.386.386 0 0 0-.386-.366h-.351a.65.65 0 0 1-.649-.649v-.49a.65.65 0 0 1 .649-.649h.345a.386.386 0 0 0 .386-.386v-1.28a1.54 1.54 0 0 0 1.46-1.039 5 5 0 0 0 1.147.825 7.7 7.7 0 0 0 5.494.319v1.178a.386.386 0 0 0 .386.386h.345a.65.65 0 0 1 .649.649v.49a.65.65 0 0 1-.649.649h-.351a.386.386 0 0 0-.386.366A4.052 4.052 0 0 1 8.3 35.592h-.007a4.063 4.063 0 0 1-3.018 0l-.022-.009a4.043 4.043 0 0 1-2.507-3.532zm5.319 4.436V37.9a1.278 1.278 0 0 1-2.555 0v-1.414a4.828 4.828 0 0 0 2.555 0zm-7.293 3.43v-2.1a.577.577 0 0 1 .576-.576h.941a.321.321 0 0 1 .321.321v2.612a.321.321 0 0 1-.321.321h-.94a.577.577 0 0 1-.577-.578zm11.246.173v4.783h-1.083v-2.588a.386.386 0 1 0-.772 0v2.588h-6.75v-2.588a.386.386 0 1 0-.772 0v2.588H1.558v-3.607h.731a1.1 1.1 0 0 0 1.093-1.093v-2.394a2.38 2.38 0 0 1 .551-.065h.8v.19a2.05 2.05 0 1 0 4.1 0v-.193h.8a2.378 2.378 0 0 1 2.385 2.379zM21.31 37.9c0 .428-.7 1.033-1.278 1.4-.583-.365-1.278-.97-1.278-1.4v-1.414a4.829 4.829 0 0 0 2.556 0zm4.282-5.682v2.1a1.3 1.3 0 0 1-1.3 1.3H23.02q.174-.138.337-.292a4.8 4.8 0 0 0 1.456-2.872 1.413 1.413 0 0 0 .779-.232zM15.254 29.9h.346a.386.386 0 0 0 .386-.386v-1.97a10.316 10.316 0 0 0 7.676-1.953 3.531 3.531 0 0 1 .419 1.675v2.248a.386.386 0 0 0 .386.386h.345a.65.65 0 0 1 .649.649v.49a.65.65 0 0 1-.649.649h-.352a.386.386 0 0 0-.386.366 4.051 4.051 0 0 1-2.518 3.539l-.02.009a4.065 4.065 0 0 1-3.011 0l-.023-.009a4.043 4.043 0 0 1-2.511-3.536.386.386 0 0 0-.386-.366h-.351a.65.65 0 0 1-.649-.649v-.49a.65.65 0 0 1 .649-.652zm0 2.561a4.806 4.806 0 0 0 1.792 3.164h-1.273a1.3 1.3 0 0 1-1.3-1.3v-2.1a1.413 1.413 0 0 0 .779.232z" class="prefix__cls-1" data-name="Trazado 21" transform="translate(0 -21.49)"/>
            </g>
        </g>
    </g>
</svg>
