<svg xmlns="http://www.w3.org/2000/svg" id="prefix__historial-i" width="18.1" height="20.016" viewBox="0 0 18.1 20.016">
    <defs>
        <clipPath id="prefix__clip-path">
            <path id="prefix__Trazado_4879" d="M10 2.1L4.2 5.6 10 9l5.8-3.5zm.5-2l8.3 5a.5.5 0 0 1 0 .8L10 11.3 1.2 6a.536.536 0 0 1-.3-.4.52.52 0 0 1 .2-.4l8.3-5a1.448 1.448 0 0 1 1.1-.1zm7.2 8.8l1.1.7a.5.5 0 0 1 0 .8L10 15.7l-8.8-5.3a.536.536 0 0 1-.3-.4.536.536 0 0 1 .3-.4l1.1-.7 7.7 4.6zm0 4.5l1.1.7a.5.5 0 0 1 0 .8l-8.3 5a.908.908 0 0 1-1 0l-8.3-5a.5.5 0 0 1 0-.8l1.1-.7L10 18z" class="prefix__cls-1" data-name="Trazado 4879" transform="translate(-.9 -.034)"/>
        </clipPath>
        <clipPath id="prefix__clip-path-2">
            <path id="prefix__Rect치ngulo_1715" d="M0 0H3562.7V2388.5H0z" class="prefix__cls-1" data-name="Rect치ngulo 1715"/>
        </clipPath>
        <style>
            .prefix__cls-1{fill:#526876}
        </style>
    </defs>
    <g id="prefix__Grupo_244" data-name="Grupo 244">
        <g id="prefix__Grupo_243" data-name="Grupo 243" transform="translate(-866.4 -785.234)">
            <path id="prefix__Rect치ngulo_1714" d="M0 0H27.6V29.5H0z" class="prefix__cls-1" data-name="Rect치ngulo 1714" transform="translate(861.7 780.4)"/>
        </g>
    </g>
</svg>
