<svg xmlns="http://www.w3.org/2000/svg" id="prefix__inicio-a" width="18" height="19.025" viewBox="0 0 18 19.025">
    <defs>
        <clipPath id="prefix__clip-path">
            <path id="prefix__Trazado_4876" d="M5 10.5a5 5 0 0 0 10 0h-2a2.946 2.946 0 0 1-3 3 2.946 2.946 0 0 1-3-3zm14 8a.945.945 0 0 1-1 1H2a.945.945 0 0 1-1-1V7.8a.909.909 0 0 1 .4-.8l8-6.3a.91.91 0 0 1 1.2 0l8 6.3a.909.909 0 0 1 .4.8z" class="prefix__cls-1" data-name="Trazado 4876" transform="translate(-1 -.475)"/>
        </clipPath>
        <clipPath id="prefix__clip-path-2">
            <path id="prefix__Rect치ngulo_1709" d="M0 0H3744V2510H0z" class="prefix__cls-1" data-name="Rect치ngulo 1709"/>
        </clipPath>
        <style>
            .prefix__cls-1{fill:#526876}
        </style>
    </defs>
    <g id="prefix__Grupo_238" data-name="Grupo 238">
        <g id="prefix__Grupo_237" data-name="Grupo 237" transform="translate(-1019 -397.975)">
            <path id="prefix__Rect치ngulo_1708" d="M0 0H28V29H0z" class="prefix__cls-1" data-name="Rect치ngulo 1708" transform="translate(1014 393)"/>
        </g>
    </g>
</svg>
