<svg xmlns="http://www.w3.org/2000/svg" width="22.391" height="22.391" viewBox="0 0 22.391 22.391">
    <defs>
        <style>
            .prefix__cls-1{fill:#fff;stroke:#fff;stroke-width:.5px}
        </style>
    </defs>
    <g id="prefix__ui" transform="translate(.25 .25)">
        <path id="prefix__Trazado_10" d="M11.632 21.891h-1.374a2.018 2.018 0 0 1-2.015-2.015v-.465a8.838 8.838 0 0 1-1.372-.57l-.329.329a2.015 2.015 0 0 1-2.85 0l-.972-.97a2.015 2.015 0 0 1 0-2.85l.329-.329a8.838 8.838 0 0 1-.57-1.372h-.464A2.017 2.017 0 0 1 0 11.632v-1.374a2.018 2.018 0 0 1 2.015-2.015h.465a8.84 8.84 0 0 1 .57-1.372l-.33-.329a2.015 2.015 0 0 1 0-2.85l.971-.971a2.015 2.015 0 0 1 2.85 0l.329.329a8.846 8.846 0 0 1 1.372-.57v-.465A2.017 2.017 0 0 1 10.258 0h1.374a2.017 2.017 0 0 1 2.015 2.015v.465a8.837 8.837 0 0 1 1.372.57l.329-.329a2.015 2.015 0 0 1 2.85 0l.971.971a2.015 2.015 0 0 1 0 2.85l-.329.329a8.838 8.838 0 0 1 .57 1.372h.465a2.018 2.018 0 0 1 2.015 2.015v1.374a2.018 2.018 0 0 1-2.015 2.015h-.465a8.84 8.84 0 0 1-.57 1.372l.329.329a2.015 2.015 0 0 1 0 2.85l-.971.971a2.015 2.015 0 0 1-2.85 0l-.329-.329a8.846 8.846 0 0 1-1.372.57v.465a2.017 2.017 0 0 1-2.015 2.016zm-4.547-4.4a7.56 7.56 0 0 0 1.96.813.641.641 0 0 1 .481.621v.947a.733.733 0 0 0 .733.733h1.374a.733.733 0 0 0 .733-.733v-.947a.641.641 0 0 1 .481-.621 7.56 7.56 0 0 0 1.96-.813.641.641 0 0 1 .78.1l.671.671a.732.732 0 0 0 1.036 0l.972-.972a.732.732 0 0 0 0-1.036l-.671-.671a.641.641 0 0 1-.1-.78 7.558 7.558 0 0 0 .813-1.96.641.641 0 0 1 .621-.481h.947a.733.733 0 0 0 .733-.733v-1.371a.733.733 0 0 0-.733-.733h-.947a.641.641 0 0 1-.621-.481 7.56 7.56 0 0 0-.813-1.96.641.641 0 0 1 .1-.78l.671-.671a.732.732 0 0 0 0-1.036l-.972-.972a.732.732 0 0 0-1.036 0l-.671.671a.641.641 0 0 1-.78.1 7.56 7.56 0 0 0-1.96-.813.641.641 0 0 1-.481-.621v-.947a.733.733 0 0 0-.733-.733h-1.375a.733.733 0 0 0-.733.733v.947a.641.641 0 0 1-.481.621 7.56 7.56 0 0 0-1.96.813.641.641 0 0 1-.78-.1l-.671-.671a.732.732 0 0 0-1.036 0l-.97.975a.732.732 0 0 0 0 1.036l.671.671a.641.641 0 0 1 .1.78 7.558 7.558 0 0 0-.813 1.96.641.641 0 0 1-.621.481h-.949a.733.733 0 0 0-.733.733v1.374a.733.733 0 0 0 .733.733h.947a.641.641 0 0 1 .621.481 7.56 7.56 0 0 0 .813 1.96.641.641 0 0 1-.1.78l-.671.671a.732.732 0 0 0 0 1.036l.972.972a.732.732 0 0 0 1.036 0l.671-.671a.644.644 0 0 1 .78-.1z" class="prefix__cls-1" data-name="Trazado 10"/>
        <path id="prefix__Trazado_11" d="M148.591 152.583a3.991 3.991 0 1 1 3.991-3.991 4 4 0 0 1-3.991 3.991zm0-6.908a2.917 2.917 0 1 0 2.917 2.917 2.92 2.92 0 0 0-2.917-2.917z" class="prefix__cls-1" data-name="Trazado 11" transform="translate(-137.646 -137.646)"/>
    </g>
</svg>
